<svg id="visual" viewBox="0 0 960 2000" width="960" height="2000" xmlns="http://www.w3.org/2000/svg" xmlns:xlink="http://www.w3.org/1999/xlink" version="1.1"><rect width="960" height="2000" fill="#ffffff"></rect><g><g transform="translate(744 1855)"><path d="M68.2 -81.5C86.8 -65.6 99.3 -42.7 106.9 -16.4C114.5 9.9 117.1 39.5 104.8 60.2C92.5 80.9 65.2 92.6 38.3 100.3C11.3 108 -15.3 111.6 -39.7 104.7C-64.1 97.7 -86.3 80.2 -98.8 57.5C-111.4 34.9 -114.3 7.1 -111.7 -21.8C-109.1 -50.6 -100.9 -80.6 -81.4 -96.3C-61.8 -112.1 -30.9 -113.7 -3.1 -110C24.8 -106.3 49.5 -97.5 68.2 -81.5Z" stroke="#efefef" fill="none" stroke-width="8"></path></g><g transform="translate(901 852)"><path d="M29.9 -35.7C37.3 -29.3 41.1 -18.6 43.6 -7.3C46.1 4.1 47.4 16.1 43 26C38.7 35.8 28.7 43.6 17.4 47.6C6.1 51.7 -6.5 52 -17.5 48C-28.6 44.1 -38.2 35.8 -43.5 25.6C-48.9 15.4 -50 3.2 -47.1 -7.5C-44.2 -18.1 -37.3 -27.1 -28.8 -33.3C-20.2 -39.5 -10.1 -42.9 0.5 -43.5C11.2 -44.2 22.4 -42.1 29.9 -35.7Z" stroke="#efefef" fill="none" stroke-width="8"></path></g><g transform="translate(635 44)"><path d="M18.6 -22.4C24.3 -17.5 29 -11.7 31.4 -4.6C33.8 2.6 33.9 11.1 30.3 17.5C26.7 23.9 19.2 28.2 11.6 30.2C4 32.2 -3.8 32 -10.5 29.3C-17.3 26.7 -23 21.6 -26.7 15.4C-30.3 9.1 -31.9 1.6 -31.1 -5.9C-30.3 -13.4 -27 -20.8 -21.4 -25.7C-15.8 -30.7 -7.9 -33.1 -0.7 -32.3C6.5 -31.4 13 -27.4 18.6 -22.4Z" stroke="#efefef" fill="none" stroke-width="8"></path></g><g transform="translate(481 1672)"><path d="M45 -53.6C58.6 -42.2 70.1 -28.3 73.1 -12.7C76.1 2.9 70.5 20.2 62 36.5C53.4 52.7 41.8 67.9 25.9 75.7C10 83.4 -10.3 83.7 -26.8 76.5C-43.3 69.2 -56 54.5 -63.8 38.2C-71.5 21.9 -74.2 4.2 -71.4 -12.7C-68.5 -29.6 -60.1 -45.6 -47.3 -57.2C-34.5 -68.8 -17.2 -76 -0.8 -75C15.7 -74.1 31.3 -65.1 45 -53.6Z" stroke="#efefef" fill="none" stroke-width="8"></path></g><g transform="translate(224 1428)"><path d="M28.1 -33.4C36.3 -26.6 42.6 -17.6 44.6 -7.7C46.5 2.2 44.1 13.1 38.9 22.9C33.8 32.6 25.9 41.1 16 45.4C6 49.7 -6 49.7 -16.9 45.9C-27.7 42.1 -37.4 34.7 -44.2 24.7C-50.9 14.7 -54.8 2.2 -52.1 -8.5C-49.4 -19.2 -40.2 -28 -30.4 -34.5C-20.6 -41 -10.3 -45.2 -0.2 -45C10 -44.8 19.9 -40.2 28.1 -33.4Z" stroke="#efefef" fill="none" stroke-width="8"></path></g><g transform="translate(13 1691)"><path d="M55.2 -66.9C68.8 -54.3 75.4 -34.4 77.2 -15C79 4.4 76 23.3 66.9 38.2C57.8 53.1 42.5 64.1 25.4 70.6C8.3 77.1 -10.6 79.2 -26.6 73.3C-42.6 67.4 -55.6 53.5 -64.2 37.6C-72.8 21.7 -77 3.7 -75.1 -14.3C-73.1 -32.2 -65.1 -50.2 -51.6 -62.8C-38.1 -75.4 -19 -82.6 0.9 -83.7C20.8 -84.7 41.5 -79.4 55.2 -66.9Z" stroke="#efefef" fill="none" stroke-width="8"></path></g><g transform="translate(337 745)"><path d="M34.6 -41.9C43.3 -34 47.6 -21.6 49.9 -8.8C52.2 4 52.4 17.2 47 27.5C41.5 37.8 30.3 45.2 17.9 50.1C5.5 55.1 -8.2 57.5 -20.9 54.2C-33.6 51 -45.4 42 -52.2 30.2C-59 18.4 -60.8 3.7 -57.2 -8.9C-53.6 -21.5 -44.6 -31.9 -34.1 -39.5C-23.7 -47.2 -11.8 -52 0.6 -52.6C13 -53.3 25.9 -49.8 34.6 -41.9Z" stroke="#efefef" fill="none" stroke-width="8"></path></g><g transform="translate(199 38)"><path d="M25.9 -30.9C33.1 -24.8 38.1 -16.2 41.3 -6.1C44.6 4.1 46 15.8 41.8 25.1C37.6 34.5 27.6 41.6 17.1 44.3C6.5 47 -4.7 45.3 -14.8 41.3C-24.9 37.3 -34 31.1 -39.6 22.4C-45.2 13.6 -47.4 2.4 -46.1 -8.6C-44.7 -19.7 -39.8 -30.7 -31.6 -36.6C-23.3 -42.6 -11.6 -43.5 -1.2 -42.2C9.3 -40.8 18.7 -37.1 25.9 -30.9Z" stroke="#efefef" fill="none" stroke-width="8"></path></g><g transform="translate(913 1392)"><path d="M27.1 -33.2C34.7 -26 40 -17 41.6 -7.4C43.1 2.1 40.9 12.2 35.9 20.5C30.8 28.7 22.9 35 13.5 39.6C4 44.1 -7 46.8 -17.2 44.4C-27.4 41.9 -36.8 34.3 -41 24.8C-45.2 15.2 -44.3 3.8 -41.2 -6.2C-38.1 -16.1 -32.9 -24.6 -25.7 -31.9C-18.5 -39.2 -9.3 -45.3 0.3 -45.6C9.8 -45.9 19.6 -40.5 27.1 -33.2Z" stroke="#efefef" fill="none" stroke-width="8"></path></g><g transform="translate(398 404)"><path d="M65.2 -76.5C84.7 -61.3 101 -41 106 -17.9C110.9 5.1 104.5 30.9 91.6 52.5C78.6 74.1 59.2 91.6 35.9 101.3C12.6 110.9 -14.6 112.8 -35 102.5C-55.4 92.3 -69.1 70.1 -81 47.6C-93 25.2 -103.2 2.6 -103 -21.6C-102.8 -45.7 -92.1 -71.4 -73.2 -86.7C-54.3 -102 -27.2 -106.9 -2.2 -104.3C22.8 -101.7 45.6 -91.7 65.2 -76.5Z" stroke="#efefef" fill="none" stroke-width="8"></path></g><g transform="translate(887 449)"><path d="M56.7 -67.7C72 -54.7 81.9 -35.4 84.4 -15.7C86.9 4 81.9 24.2 72.6 43.5C63.4 62.8 49.8 81.1 30.7 91C11.6 100.8 -13 102.1 -34.7 94.6C-56.5 87 -75.3 70.7 -86.8 50.4C-98.2 30 -102.2 5.6 -98 -17.1C-93.8 -39.9 -81.3 -61 -63.6 -73.6C-45.9 -86.3 -23 -90.5 -1.1 -89.1C20.7 -87.7 41.3 -80.8 56.7 -67.7Z" stroke="#efefef" fill="none" stroke-width="8"></path></g><g transform="translate(67 349)"><path d="M31.9 -36.9C41.6 -29.9 49.9 -20.1 52.9 -8.5C55.8 3 53.4 16.2 47.1 27.1C40.7 38 30.4 46.5 18.9 49.7C7.5 52.8 -5.1 50.6 -17.3 46.6C-29.6 42.6 -41.6 36.8 -47.8 27.1C-54.1 17.4 -54.6 3.8 -51.7 -8.4C-48.7 -20.7 -42.2 -31.6 -33 -38.8C-23.8 -46 -11.9 -49.4 -0.4 -48.9C11.1 -48.4 22.2 -44 31.9 -36.9Z" stroke="#efefef" fill="none" stroke-width="8"></path></g><g transform="translate(569 1389)"><path d="M36.7 -43.8C47 -35.1 54.5 -23 57.9 -9.4C61.3 4.2 60.6 19.4 54.3 32.4C48 45.4 36.2 56.2 22.4 61C8.6 65.8 -7.2 64.5 -20.9 58.9C-34.5 53.2 -46 43.2 -53 30.8C-60 18.3 -62.5 3.4 -61.4 -12.2C-60.3 -27.9 -55.6 -44.3 -44.8 -52.9C-34 -61.6 -17 -62.4 -1.9 -60.2C13.2 -57.9 26.4 -52.5 36.7 -43.8Z" stroke="#efefef" fill="none" stroke-width="8"></path></g><g transform="translate(25 755)"><path d="M46.6 -54.8C59.4 -44.7 68.3 -29.2 71 -12.7C73.7 3.8 70.2 21.2 62.2 36.7C54.1 52.2 41.5 65.9 25.5 73C9.4 80.2 -10.1 80.8 -28.5 75.4C-46.9 70 -64.1 58.5 -74.9 42.1C-85.7 25.8 -90.1 4.5 -84.8 -13C-79.4 -30.6 -64.3 -44.6 -48.5 -54.1C-32.8 -63.6 -16.4 -68.6 0.2 -68.9C16.9 -69.2 33.7 -64.8 46.6 -54.8Z" stroke="#efefef" fill="none" stroke-width="8"></path></g><g transform="translate(191 1013)"><path d="M40.4 -48.8C50.3 -39.9 54.8 -25.2 57.7 -10C60.5 5.1 61.7 20.7 55.8 33.3C49.8 45.9 36.8 55.6 22.8 59.1C8.9 62.6 -6 59.9 -19.3 54.5C-32.7 49.1 -44.5 40.8 -50.9 29.5C-57.3 18.2 -58.2 3.9 -56.4 -10.5C-54.5 -24.9 -49.9 -39.4 -40 -48.3C-30.1 -57.3 -15.1 -60.6 0.1 -60.7C15.3 -60.9 30.5 -57.7 40.4 -48.8Z" stroke="#efefef" fill="none" stroke-width="8"></path></g><g transform="translate(246 1883)"><path d="M51.5 -61.1C64.6 -50.5 71.3 -32.1 73.3 -13.9C75.4 4.3 72.6 22.3 64.1 36.9C55.5 51.4 41.1 62.5 24.4 69.9C7.6 77.2 -11.6 80.8 -26.3 74.5C-41.1 68.2 -51.4 51.9 -59.8 35.5C-68.1 19 -74.4 2.4 -72.5 -13.6C-70.7 -29.6 -60.6 -44.9 -47.2 -55.5C-33.7 -66 -16.9 -71.8 1.2 -73.2C19.3 -74.7 38.5 -71.8 51.5 -61.1Z" stroke="#efefef" fill="none" stroke-width="8"></path></g><g transform="translate(947 8)"><path d="M44 -55.4C54.4 -43.7 58.3 -27.4 60.1 -11.5C61.8 4.4 61.4 19.8 54.8 32.1C48.2 44.3 35.5 53.5 20.7 60.5C5.8 67.6 -11.2 72.6 -27 69C-42.8 65.5 -57.3 53.5 -64.3 38.5C-71.2 23.5 -70.6 5.6 -65.4 -9.4C-60.2 -24.3 -50.4 -36.3 -38.7 -47.8C-27 -59.3 -13.5 -70.3 1.6 -72.2C16.8 -74.2 33.6 -67.1 44 -55.4Z" stroke="#efefef" fill="none" stroke-width="8"></path></g><g transform="translate(666 1064)"><path d="M45.2 -55.1C58 -43.1 67.4 -28.3 69.8 -12.6C72.3 3.2 67.9 20 60.3 36.2C52.6 52.5 41.6 68.2 27 73C12.5 77.7 -5.6 71.4 -21 63.3C-36.4 55.3 -49 45.4 -56.5 32.6C-64.1 19.7 -66.4 3.8 -65.4 -13.3C-64.5 -30.3 -60.2 -48.5 -48.8 -60.8C-37.3 -73 -18.7 -79.3 -1.2 -77.8C16.2 -76.4 32.4 -67.1 45.2 -55.1Z" stroke="#efefef" fill="none" stroke-width="8"></path></g><g transform="translate(634 634)"><path d="M58.4 -71.1C72.7 -57.6 79.3 -36.4 82.9 -14.8C86.4 6.8 87 28.7 78.2 46.4C69.4 64.1 51.3 77.5 31.3 83.9C11.3 90.3 -10.5 89.7 -29.1 82C-47.6 74.4 -62.9 59.7 -71.1 42.5C-79.2 25.3 -80.3 5.5 -77.1 -13.7C-73.8 -32.9 -66.3 -51.5 -52.7 -65.1C-39.2 -78.7 -19.6 -87.4 1.2 -88.9C22 -90.3 44.1 -84.6 58.4 -71.1Z" stroke="#efefef" fill="none" stroke-width="8"></path></g></g></svg>