<svg id="visual" viewBox="0 0 900 600" width="900" height="600" xmlns="http://www.w3.org/2000/svg" xmlns:xlink="http://www.w3.org/1999/xlink" version="1.1"><rect x="0" y="0" width="900" height="600" fill="rgba(100,100,100,0)"></rect><defs><linearGradient id="grad1_0" x1="33.3%" y1="0%" x2="100%" y2="100%"><stop offset="20%" stop-color="rgba(100,100,100,0)" stop-opacity="1"></stop><stop offset="80%" stop-color="rgba(100,100,100,0)" stop-opacity="1"></stop></linearGradient></defs><defs><linearGradient id="grad2_0" x1="0%" y1="0%" x2="66.7%" y2="100%"><stop offset="20%" stop-color="rgba(100,100,100,0)" stop-opacity="1"></stop><stop offset="80%" stop-color="rgba(100,100,100,0)" stop-opacity="1"></stop></linearGradient></defs><g transform="translate(900, 0)"><path d="M0 324.5C-33.3 298 -66.6 271.5 -107.5 259.6C-148.4 247.8 -196.9 250.6 -229.5 229.5C-262 208.3 -278.8 163.2 -291.9 120.9C-305.1 78.7 -314.8 39.3 -324.5 0L0 0Z" fill="rgb(59,130,246)"></path></g><g transform="translate(0, 600)"><path d="M0 -324.5C33.3 -291.4 66.6 -258.3 99.1 -239.3C131.7 -220.3 163.5 -215.4 200.1 -200.1C236.8 -184.9 278.3 -159.3 299.8 -124.2C321.3 -89.1 322.9 -44.6 324.5 0L0 0Z" fill="rgb(59,130,246)"></path></g></svg>